<?xml version="1.0" standalone="no"?>
 <!DOCTYPE svg PUBLIC "-//W3C//DTD SVG 1.1//EN" 
 "http://www.w3.org/Graphics/SVG/1.1/DTD/svg11.dtd"> 
<svg xmlns="http://www.w3.org/2000/svg" version="1.1" 
    width="29.7002cm" height="21.0007cm" viewBox="0 0 116930 82680 ">
<title>SVG Picture created as pwmcontroller-B_Cu.svg date 2019/09/08 17:37:59 </title>
  <desc>Picture generated by PCBNEW </desc>
<g style="fill:#000000; fill-opacity:1;stroke:#000000; stroke-opacity:1;
stroke-linecap:round; stroke-linejoin:round; "
 transform="translate(0 0) scale(1 1)">
</g>
<g style="fill:#000000; fill-opacity:0.0; 
stroke:#000000; stroke-width:-0.000393701; stroke-opacity:1; 
stroke-linecap:round; stroke-linejoin:round;">
</g>
<g style="fill:#000000; fill-opacity:0.0; 
stroke:#000000; stroke-width:59.0551; stroke-opacity:1; 
stroke-linecap:round; stroke-linejoin:round;">
<path d="M54900 35400
L68700 35400
" />
</g>
<g style="fill:#000000; fill-opacity:0.0; 
stroke:#000000; stroke-width:118.11; stroke-opacity:1; 
stroke-linecap:round; stroke-linejoin:round;">
<text x="61640" y="52314.3"
textLength="-1957.26" font-size="-944.882" lengthAdjust="spacingAndGlyphs"
text-anchor="middle" opacity="0">FAN</text>
<g class="stroked-text"><desc>FAN</desc>
<path d="M62213 51909
L62449 51909
" />
<path d="M62449 52280
L62449 51571
L62112 51571
" />
<path d="M61876 52078
L61538 52078
" />
<path d="M61943 52280
L61707 51571
L61471 52280
" />
<path d="M61235 52280
L61235 51571
L60830 52280
L60830 51571
" />
</g><text x="61950" y="36954.3"
textLength="-6798.09" font-size="-944.882" lengthAdjust="spacingAndGlyphs"
text-anchor="middle" opacity="0">MOTHEBOARD</text>
<g class="stroked-text"><desc>MOTHEBOARD</desc>
<path d="M65257 36920
L65257 36211
L65020 36718
L64784 36211
L64784 36920
" />
<path d="M64312 36211
L64177 36211
L64109 36245
L64042 36313
L64008 36448
L64008 36684
L64042 36819
L64109 36886
L64177 36920
L64312 36920
L64379 36886
L64447 36819
L64480 36684
L64480 36448
L64447 36313
L64379 36245
L64312 36211
" />
<path d="M63806 36211
L63401 36211
" />
<path d="M63603 36920
L63603 36211
" />
<path d="M63164 36920
L63164 36211
" />
<path d="M63164 36549
L62759 36549
" />
<path d="M62759 36920
L62759 36211
" />
<path d="M62422 36549
L62186 36549
" />
<path d="M62084 36920
L62422 36920
L62422 36211
L62084 36211
" />
<path d="M61545 36549
L61443 36583
L61410 36616
L61376 36684
L61376 36785
L61410 36853
L61443 36886
L61511 36920
L61781 36920
L61781 36211
L61545 36211
L61477 36245
L61443 36279
L61410 36346
L61410 36414
L61443 36481
L61477 36515
L61545 36549
L61781 36549
" />
<path d="M60937 36211
L60802 36211
L60735 36245
L60667 36313
L60633 36448
L60633 36684
L60667 36819
L60735 36886
L60802 36920
L60937 36920
L61005 36886
L61072 36819
L61106 36684
L61106 36448
L61072 36313
L61005 36245
L60937 36211
" />
<path d="M60363 36718
L60026 36718
" />
<path d="M60431 36920
L60195 36211
L59958 36920
" />
<path d="M59317 36920
L59554 36583
" />
<path d="M59722 36920
L59722 36211
L59452 36211
L59385 36245
L59351 36279
L59317 36346
L59317 36448
L59351 36515
L59385 36549
L59452 36583
L59722 36583
" />
<path d="M59014 36920
L59014 36211
L58845 36211
L58744 36245
L58676 36313
L58642 36380
L58609 36515
L58609 36616
L58642 36751
L58676 36819
L58744 36886
L58845 36920
L59014 36920
" />
</g></g>
<g style="fill:#000000; fill-opacity:0.0; 
stroke:#000000; stroke-width:59.0551; stroke-opacity:1; 
stroke-linecap:round; stroke-linejoin:round;">
<path d="M54900 52900
L54900 35400
" />
<path d="M68700 52900
L54900 52900
" />
<path d="M68700 35400
L68700 52900
" />
<g >
</g>
<g style="fill:#000000; fill-opacity:1.0; 
stroke:#000000; stroke-width:0; stroke-opacity:1; 
stroke-linecap:round; stroke-linejoin:round;">
<circle cx="57000" cy="39500" r="393.701" /> 
</g>
<g style="fill:#000000; fill-opacity:1.0; 
stroke:#000000; stroke-width:39.3701; stroke-opacity:1; 
stroke-linecap:round; stroke-linejoin:round;">
</g>
<g style="fill:#000000; fill-opacity:1.0; 
stroke:#000000; stroke-width:0; stroke-opacity:1; 
stroke-linecap:round; stroke-linejoin:round;">
<path style="fill:#000000; fill-opacity:1.0; 
stroke:#000000; stroke-width:0; stroke-opacity:1; 
stroke-linecap:round; stroke-linejoin:round;fill-rule:evenodd;"
d="M 58378,39106.3
58378,39893.7
57590.6,39893.7
57590.6,39106.3
Z" /> 
</g>
<g >
</g>
<g style="fill:#000000; fill-opacity:1.0; 
stroke:#000000; stroke-width:0; stroke-opacity:1; 
stroke-linecap:round; stroke-linejoin:round;">
<circle cx="56515.7" cy="46750" r="393.701" /> 
</g>
<g style="fill:#000000; fill-opacity:1.0; 
stroke:#000000; stroke-width:39.3701; stroke-opacity:1; 
stroke-linecap:round; stroke-linejoin:round;">
</g>
<g style="fill:#000000; fill-opacity:1.0; 
stroke:#000000; stroke-width:0; stroke-opacity:1; 
stroke-linecap:round; stroke-linejoin:round;">
<path style="fill:#000000; fill-opacity:1.0; 
stroke:#000000; stroke-width:0; stroke-opacity:1; 
stroke-linecap:round; stroke-linejoin:round;fill-rule:evenodd;"
d="M 57893.7,46356.3
57893.7,47143.7
57106.3,47143.7
57106.3,46356.3
Z" /> 
</g>
<g >
</g>
<g style="fill:#000000; fill-opacity:1.0; 
stroke:#000000; stroke-width:0; stroke-opacity:1; 
stroke-linecap:round; stroke-linejoin:round;">
<path style="fill:#000000; fill-opacity:1.0; 
stroke:#000000; stroke-width:0; stroke-opacity:1; 
stroke-linecap:round; stroke-linejoin:round;fill-rule:evenodd;"
d="M 64763.8,48822.8
65236.2,48822.8
65236.2,49177.2
64763.8,49177.2
Z" /> 
<path style="fill:#000000; fill-opacity:1.0; 
stroke:#000000; stroke-width:0; stroke-opacity:1; 
stroke-linecap:round; stroke-linejoin:round;fill-rule:evenodd;"
d="M 64763.8,47523.6
65236.2,47523.6
65236.2,47878
64763.8,47878
Z" /> 
</g>
<g >
</g>
<g style="fill:#000000; fill-opacity:1.0; 
stroke:#000000; stroke-width:0; stroke-opacity:1; 
stroke-linecap:round; stroke-linejoin:round;">
</g>
<g style="fill:#000000; fill-opacity:1.0; 
stroke:#000000; stroke-width:787.402; stroke-opacity:1; 
stroke-linecap:round; stroke-linejoin:round;">
</g>
<g style="fill:#000000; fill-opacity:0.0; 
stroke:#000000; stroke-width:787.402; stroke-opacity:1; 
stroke-linecap:round; stroke-linejoin:round;">
<path d="M60000 51550
L60000 51550
" />
</g>
<g style="fill:#000000; fill-opacity:0.0; 
stroke:#000000; stroke-width:0; stroke-opacity:1; 
stroke-linecap:round; stroke-linejoin:round;">
</g>
<g style="fill:#000000; fill-opacity:1.0; 
stroke:#000000; stroke-width:0; stroke-opacity:1; 
stroke-linecap:round; stroke-linejoin:round;">
<path style="fill:#000000; fill-opacity:1.0; 
stroke:#000000; stroke-width:0; stroke-opacity:1; 
stroke-linecap:round; stroke-linejoin:round;fill-rule:evenodd;"
d="M 59393.7,51943.7
58606.3,51943.7
58606.3,51156.3
59393.7,51156.3
Z" /> 
</g>
<g >
</g>
<g style="fill:#000000; fill-opacity:1.0; 
stroke:#000000; stroke-width:0; stroke-opacity:1; 
stroke-linecap:round; stroke-linejoin:round;">
<path style="fill:#000000; fill-opacity:1.0; 
stroke:#000000; stroke-width:0; stroke-opacity:1; 
stroke-linecap:round; stroke-linejoin:round;fill-rule:evenodd;"
d="M 64628,50708.7
64372,50708.7
64372,50291.3
64628,50291.3
Z" /> 
<path style="fill:#000000; fill-opacity:1.0; 
stroke:#000000; stroke-width:0; stroke-opacity:1; 
stroke-linecap:round; stroke-linejoin:round;fill-rule:evenodd;"
d="M 63879.9,50708.7
63624,50708.7
63624,50291.3
63879.9,50291.3
Z" /> 
<path style="fill:#000000; fill-opacity:1.0; 
stroke:#000000; stroke-width:0; stroke-opacity:1; 
stroke-linecap:round; stroke-linejoin:round;fill-rule:evenodd;"
d="M 63879.9,51574.8
63624,51574.8
63624,51157.5
63879.9,51157.5
Z" /> 
<path style="fill:#000000; fill-opacity:1.0; 
stroke:#000000; stroke-width:0; stroke-opacity:1; 
stroke-linecap:round; stroke-linejoin:round;fill-rule:evenodd;"
d="M 64253.9,51574.8
63998,51574.8
63998,51157.5
64253.9,51157.5
Z" /> 
<path style="fill:#000000; fill-opacity:1.0; 
stroke:#000000; stroke-width:0; stroke-opacity:1; 
stroke-linecap:round; stroke-linejoin:round;fill-rule:evenodd;"
d="M 64628,51574.8
64372,51574.8
64372,51157.5
64628,51157.5
Z" /> 
</g>
<g >
</g>
<g style="fill:#000000; fill-opacity:1.0; 
stroke:#000000; stroke-width:0; stroke-opacity:1; 
stroke-linecap:round; stroke-linejoin:round;">
</g>
<g style="fill:#000000; fill-opacity:1.0; 
stroke:#000000; stroke-width:787.402; stroke-opacity:1; 
stroke-linecap:round; stroke-linejoin:round;">
</g>
<g style="fill:#000000; fill-opacity:0.0; 
stroke:#000000; stroke-width:787.402; stroke-opacity:1; 
stroke-linecap:round; stroke-linejoin:round;">
<path d="M62000 49010
L62000 49089
" />
<path d="M61000 49010
L61000 49089
" />
<path d="M60000 49010
L60000 49089
" />
</g>
<g style="fill:#000000; fill-opacity:0.0; 
stroke:#000000; stroke-width:0; stroke-opacity:1; 
stroke-linecap:round; stroke-linejoin:round;">
</g>
<g style="fill:#000000; fill-opacity:1.0; 
stroke:#000000; stroke-width:0; stroke-opacity:1; 
stroke-linecap:round; stroke-linejoin:round;">
<path style="fill:#000000; fill-opacity:1.0; 
stroke:#000000; stroke-width:0; stroke-opacity:1; 
stroke-linecap:round; stroke-linejoin:round;fill-rule:evenodd;"
d="M 59321.3,48624.6
59356.7,48646.5
59381.8,48679.8
59393.7,48730.3
59393.7,49369.7
59386,49410.6
59364.1,49446.1
59330.9,49471.2
59280.3,49483.1
58719.7,49483.1
58678.7,49475.4
58643.3,49453.5
58618.2,49420.2
58606.3,49369.7
58606.3,48730.3
58614,48689.4
58635.9,48653.9
58669.1,48628.8
58719.7,48616.9
59280.3,48616.9
Z" /> 
</g>
<g >
</g>
<g style="fill:#000000; fill-opacity:1.0; 
stroke:#000000; stroke-width:0; stroke-opacity:1; 
stroke-linecap:round; stroke-linejoin:round;">
</g>
<g style="fill:#000000; fill-opacity:1.0; 
stroke:#000000; stroke-width:787.402; stroke-opacity:1; 
stroke-linecap:round; stroke-linejoin:round;">
</g>
<g style="fill:#000000; fill-opacity:0.0; 
stroke:#000000; stroke-width:787.402; stroke-opacity:1; 
stroke-linecap:round; stroke-linejoin:round;">
<path d="M63000 38960
L63000 39039
" />
<path d="M62000 38960
L62000 39039
" />
<path d="M61000 38960
L61000 39039
" />
</g>
<g style="fill:#000000; fill-opacity:0.0; 
stroke:#000000; stroke-width:0; stroke-opacity:1; 
stroke-linecap:round; stroke-linejoin:round;">
</g>
<g style="fill:#000000; fill-opacity:1.0; 
stroke:#000000; stroke-width:0; stroke-opacity:1; 
stroke-linecap:round; stroke-linejoin:round;">
<path style="fill:#000000; fill-opacity:1.0; 
stroke:#000000; stroke-width:0; stroke-opacity:1; 
stroke-linecap:round; stroke-linejoin:round;fill-rule:evenodd;"
d="M 60321.3,38574.6
60356.7,38596.5
60381.8,38629.8
60393.7,38680.3
60393.7,39319.7
60386,39360.6
60364.1,39396.1
60330.9,39421.2
60280.3,39433.1
59719.7,39433.1
59678.7,39425.4
59643.3,39403.5
59618.2,39370.2
59606.3,39319.7
59606.3,38680.3
59614,38639.4
59635.9,38603.9
59669.1,38578.8
59719.7,38566.9
60280.3,38566.9
Z" /> 
</g>
<g >
</g>
<g style="fill:#000000; fill-opacity:1.0; 
stroke:#000000; stroke-width:0; stroke-opacity:1; 
stroke-linecap:round; stroke-linejoin:round;">
<circle cx="66552.8" cy="42000" r="984.252" /> 
</g>
<g style="fill:#000000; fill-opacity:1.0; 
stroke:#000000; stroke-width:39.3701; stroke-opacity:1; 
stroke-linecap:round; stroke-linejoin:round;">
</g>
<g style="fill:#000000; fill-opacity:1.0; 
stroke:#000000; stroke-width:0; stroke-opacity:1; 
stroke-linecap:round; stroke-linejoin:round;">
<circle cx="66552.8" cy="45779.5" r="984.252" /> 
</g>
<g style="fill:#000000; fill-opacity:1.0; 
stroke:#000000; stroke-width:39.3701; stroke-opacity:1; 
stroke-linecap:round; stroke-linejoin:round;">
</g>
<g style="fill:#000000; fill-opacity:1.0; 
stroke:#000000; stroke-width:0; stroke-opacity:1; 
stroke-linecap:round; stroke-linejoin:round;">
<circle cx="63600" cy="44874" r="393.701" /> 
</g>
<g style="fill:#000000; fill-opacity:1.0; 
stroke:#000000; stroke-width:39.3701; stroke-opacity:1; 
stroke-linecap:round; stroke-linejoin:round;">
</g>
<g style="fill:#000000; fill-opacity:1.0; 
stroke:#000000; stroke-width:0; stroke-opacity:1; 
stroke-linecap:round; stroke-linejoin:round;">
<circle cx="63600" cy="43889.8" r="393.701" /> 
</g>
<g style="fill:#000000; fill-opacity:1.0; 
stroke:#000000; stroke-width:39.3701; stroke-opacity:1; 
stroke-linecap:round; stroke-linejoin:round;">
</g>
<g style="fill:#000000; fill-opacity:1.0; 
stroke:#000000; stroke-width:0; stroke-opacity:1; 
stroke-linecap:round; stroke-linejoin:round;">
<path style="fill:#000000; fill-opacity:1.0; 
stroke:#000000; stroke-width:0; stroke-opacity:1; 
stroke-linecap:round; stroke-linejoin:round;fill-rule:evenodd;"
d="M 63993.7,43299.2
63206.3,43299.2
63206.3,42511.8
63993.7,42511.8
Z" /> 
</g>
<g >
</g>
<g style="fill:#000000; fill-opacity:1.0; 
stroke:#000000; stroke-width:0; stroke-opacity:1; 
stroke-linecap:round; stroke-linejoin:round;">
</g>
<g style="fill:#000000; fill-opacity:1.0; 
stroke:#000000; stroke-width:748.031; stroke-opacity:1; 
stroke-linecap:round; stroke-linejoin:round;">
</g>
<g style="fill:#000000; fill-opacity:0.0; 
stroke:#000000; stroke-width:748.031; stroke-opacity:1; 
stroke-linecap:round; stroke-linejoin:round;">
<path d="M59000 42500
L59000 42500
" />
<path d="M62000 45500
L62000 45500
" />
<path d="M60000 42500
L60000 42500
" />
<path d="M61000 45500
L61000 45500
" />
<path d="M61000 42500
L61000 42500
" />
<path d="M60000 45500
L60000 45500
" />
<path d="M62000 42500
L62000 42500
" />
</g>
<g style="fill:#000000; fill-opacity:0.0; 
stroke:#000000; stroke-width:0; stroke-opacity:1; 
stroke-linecap:round; stroke-linejoin:round;">
</g>
<g style="fill:#000000; fill-opacity:1.0; 
stroke:#000000; stroke-width:0; stroke-opacity:1; 
stroke-linecap:round; stroke-linejoin:round;">
<path style="fill:#000000; fill-opacity:1.0; 
stroke:#000000; stroke-width:0; stroke-opacity:1; 
stroke-linecap:round; stroke-linejoin:round;fill-rule:evenodd;"
d="M 59393.7,45893.7
58606.3,45893.7
58606.3,45106.3
59393.7,45106.3
Z" /> 
</g>
<g >
</g>
<g style="fill:#000000; fill-opacity:1.0; 
stroke:#000000; stroke-width:0; stroke-opacity:1; 
stroke-linecap:round; stroke-linejoin:round;">
<path style="fill:#000000; fill-opacity:1.0; 
stroke:#000000; stroke-width:0; stroke-opacity:1; 
stroke-linecap:round; stroke-linejoin:round;fill-rule:evenodd;"
d="M 57581.7,41108
57600.8,41120.8
57613.6,41140
57618.1,41162.6
57618.1,41812.2
57613.6,41834.8
57600.8,41854
57581.7,41866.8
57559.1,41871.3
57440.9,41871.3
57418.3,41866.8
57399.2,41854
57386.4,41834.8
57381.9,41812.2
57381.9,41162.6
57386.4,41140
57399.2,41120.8
57418.3,41108
57440.9,41103.5
57559.1,41103.5
Z" /> 
<path style="fill:#000000; fill-opacity:1.0; 
stroke:#000000; stroke-width:0; stroke-opacity:1; 
stroke-linecap:round; stroke-linejoin:round;fill-rule:evenodd;"
d="M 57081.7,41108
57100.8,41120.8
57113.6,41140
57118.1,41162.6
57118.1,41812.2
57113.6,41834.8
57100.8,41854
57081.7,41866.8
57059.1,41871.3
56940.9,41871.3
56918.3,41866.8
56899.2,41854
56886.4,41834.8
56881.9,41812.2
56881.9,41162.6
56886.4,41140
56899.2,41120.8
56918.3,41108
56940.9,41103.5
57059.1,41103.5
Z" /> 
<path style="fill:#000000; fill-opacity:1.0; 
stroke:#000000; stroke-width:0; stroke-opacity:1; 
stroke-linecap:round; stroke-linejoin:round;fill-rule:evenodd;"
d="M 56581.7,41108
56600.8,41120.8
56613.6,41140
56618.1,41162.6
56618.1,41812.2
56613.6,41834.8
56600.8,41854
56581.7,41866.8
56559.1,41871.3
56440.9,41871.3
56418.3,41866.8
56399.2,41854
56386.4,41834.8
56381.9,41812.2
56381.9,41162.6
56386.4,41140
56399.2,41120.8
56418.3,41108
56440.9,41103.5
56559.1,41103.5
Z" /> 
<path style="fill:#000000; fill-opacity:1.0; 
stroke:#000000; stroke-width:0; stroke-opacity:1; 
stroke-linecap:round; stroke-linejoin:round;fill-rule:evenodd;"
d="M 56081.7,41108
56100.8,41120.8
56113.6,41140
56118.1,41162.6
56118.1,41812.2
56113.6,41834.8
56100.8,41854
56081.7,41866.8
56059.1,41871.3
55940.9,41871.3
55918.3,41866.8
55899.2,41854
55886.4,41834.8
55881.9,41812.2
55881.9,41162.6
55886.4,41140
55899.2,41120.8
55918.3,41108
55940.9,41103.5
56059.1,41103.5
Z" /> 
<path style="fill:#000000; fill-opacity:1.0; 
stroke:#000000; stroke-width:0; stroke-opacity:1; 
stroke-linecap:round; stroke-linejoin:round;fill-rule:evenodd;"
d="M 56081.7,43056.9
56100.8,43069.7
56113.6,43088.8
56118.1,43111.4
56118.1,43761
56113.6,43783.6
56100.8,43802.8
56081.7,43815.6
56059.1,43820.1
55940.9,43820.1
55918.3,43815.6
55899.2,43802.8
55886.4,43783.6
55881.9,43761
55881.9,43111.4
55886.4,43088.8
55899.2,43069.7
55918.3,43056.9
55940.9,43052.4
56059.1,43052.4
Z" /> 
<path style="fill:#000000; fill-opacity:1.0; 
stroke:#000000; stroke-width:0; stroke-opacity:1; 
stroke-linecap:round; stroke-linejoin:round;fill-rule:evenodd;"
d="M 56581.7,43056.9
56600.8,43069.7
56613.6,43088.8
56618.1,43111.4
56618.1,43761
56613.6,43783.6
56600.8,43802.8
56581.7,43815.6
56559.1,43820.1
56440.9,43820.1
56418.3,43815.6
56399.2,43802.8
56386.4,43783.6
56381.9,43761
56381.9,43111.4
56386.4,43088.8
56399.2,43069.7
56418.3,43056.9
56440.9,43052.4
56559.1,43052.4
Z" /> 
<path style="fill:#000000; fill-opacity:1.0; 
stroke:#000000; stroke-width:0; stroke-opacity:1; 
stroke-linecap:round; stroke-linejoin:round;fill-rule:evenodd;"
d="M 57081.7,43056.9
57100.8,43069.7
57113.6,43088.8
57118.1,43111.4
57118.1,43761
57113.6,43783.6
57100.8,43802.8
57081.7,43815.6
57059.1,43820.1
56940.9,43820.1
56918.3,43815.6
56899.2,43802.8
56886.4,43783.6
56881.9,43761
56881.9,43111.4
56886.4,43088.8
56899.2,43069.7
56918.3,43056.9
56940.9,43052.4
57059.1,43052.4
Z" /> 
<path style="fill:#000000; fill-opacity:1.0; 
stroke:#000000; stroke-width:0; stroke-opacity:1; 
stroke-linecap:round; stroke-linejoin:round;fill-rule:evenodd;"
d="M 57581.7,43056.9
57600.8,43069.7
57613.6,43088.8
57618.1,43111.4
57618.1,43761
57613.6,43783.6
57600.8,43802.8
57581.7,43815.6
57559.1,43820.1
57440.9,43820.1
57418.3,43815.6
57399.2,43802.8
57386.4,43783.6
57381.9,43761
57381.9,43111.4
57386.4,43088.8
57399.2,43069.7
57418.3,43056.9
57440.9,43052.4
57559.1,43052.4
Z" /> 
</g>
<g >
</g>
<g style="fill:#000000; fill-opacity:1.0; 
stroke:#000000; stroke-width:0; stroke-opacity:1; 
stroke-linecap:round; stroke-linejoin:round;">
<path style="fill:#000000; fill-opacity:1.0; 
stroke:#000000; stroke-width:0; stroke-opacity:1; 
stroke-linecap:round; stroke-linejoin:round;fill-rule:evenodd;"
d="M 56632.7,44731.7
56663.8,44752.5
56684.6,44783.7
56691.9,44820.4
56691.9,45179.6
56684.6,45216.3
56663.8,45247.5
56632.7,45268.3
56596,45275.6
56404,45275.6
56367.3,45268.3
56336.2,45247.5
56315.4,45216.3
56308.1,45179.6
56308.1,44820.4
56315.4,44783.7
56336.2,44752.5
56367.3,44731.7
56404,44724.4
56596,44724.4
Z" /> 
<path style="fill:#000000; fill-opacity:1.0; 
stroke:#000000; stroke-width:0; stroke-opacity:1; 
stroke-linecap:round; stroke-linejoin:round;fill-rule:evenodd;"
d="M 57370.9,44731.7
57402,44752.5
57422.8,44783.7
57430.1,44820.4
57430.1,45179.6
57422.8,45216.3
57402,45247.5
57370.9,45268.3
57334.2,45275.6
57142.2,45275.6
57105.5,45268.3
57074.4,45247.5
57053.6,45216.3
57046.3,45179.6
57046.3,44820.4
57053.6,44783.7
57074.4,44752.5
57105.5,44731.7
57142.2,44724.4
57334.2,44724.4
Z" /> 
</g>
<g >
</g>
<g style="fill:#000000; fill-opacity:1.0; 
stroke:#000000; stroke-width:0; stroke-opacity:1; 
stroke-linecap:round; stroke-linejoin:round;">
<path style="fill:#000000; fill-opacity:1.0; 
stroke:#000000; stroke-width:0; stroke-opacity:1; 
stroke-linecap:round; stroke-linejoin:round;fill-rule:evenodd;"
d="M 56632.7,48331.7
56663.8,48352.5
56684.6,48383.7
56691.9,48420.4
56691.9,48779.6
56684.6,48816.3
56663.8,48847.5
56632.7,48868.3
56596,48875.6
56404,48875.6
56367.3,48868.3
56336.2,48847.5
56315.4,48816.3
56308.1,48779.6
56308.1,48420.4
56315.4,48383.7
56336.2,48352.5
56367.3,48331.7
56404,48324.4
56596,48324.4
Z" /> 
<path style="fill:#000000; fill-opacity:1.0; 
stroke:#000000; stroke-width:0; stroke-opacity:1; 
stroke-linecap:round; stroke-linejoin:round;fill-rule:evenodd;"
d="M 57370.9,48331.7
57402,48352.5
57422.8,48383.7
57430.1,48420.4
57430.1,48779.6
57422.8,48816.3
57402,48847.5
57370.9,48868.3
57334.2,48875.6
57142.2,48875.6
57105.5,48868.3
57074.4,48847.5
57053.6,48816.3
57046.3,48779.6
57046.3,48420.4
57053.6,48383.7
57074.4,48352.5
57105.5,48331.7
57142.2,48324.4
57334.2,48324.4
Z" /> 
</g>
<g >
</g>
<g style="fill:#000000; fill-opacity:1.0; 
stroke:#000000; stroke-width:0; stroke-opacity:1; 
stroke-linecap:round; stroke-linejoin:round;">
<path style="fill:#000000; fill-opacity:1.0; 
stroke:#000000; stroke-width:0; stroke-opacity:1; 
stroke-linecap:round; stroke-linejoin:round;fill-rule:evenodd;"
d="M 61394.5,40731.7
61425.6,40752.5
61446.4,40783.7
61453.7,40820.4
61453.7,41179.6
61446.4,41216.3
61425.6,41247.5
61394.5,41268.3
61357.8,41275.6
61165.8,41275.6
61129.1,41268.3
61098,41247.5
61077.2,41216.3
61069.9,41179.6
61069.9,40820.4
61077.2,40783.7
61098,40752.5
61129.1,40731.7
61165.8,40724.4
61357.8,40724.4
Z" /> 
<path style="fill:#000000; fill-opacity:1.0; 
stroke:#000000; stroke-width:0; stroke-opacity:1; 
stroke-linecap:round; stroke-linejoin:round;fill-rule:evenodd;"
d="M 62132.7,40731.7
62163.8,40752.5
62184.6,40783.7
62191.9,40820.4
62191.9,41179.6
62184.6,41216.3
62163.8,41247.5
62132.7,41268.3
62096,41275.6
61904,41275.6
61867.3,41268.3
61836.2,41247.5
61815.4,41216.3
61808.1,41179.6
61808.1,40820.4
61815.4,40783.7
61836.2,40752.5
61867.3,40731.7
61904,40724.4
62096,40724.4
Z" /> 
</g>
<g >
</g>
<g style="fill:#000000; fill-opacity:1.0; 
stroke:#000000; stroke-width:0; stroke-opacity:1; 
stroke-linecap:round; stroke-linejoin:round;">
<path style="fill:#000000; fill-opacity:1.0; 
stroke:#000000; stroke-width:0; stroke-opacity:1; 
stroke-linecap:round; stroke-linejoin:round;fill-rule:evenodd;"
d="M 59132.7,46731.7
59163.8,46752.5
59184.6,46783.7
59191.9,46820.4
59191.9,47179.6
59184.6,47216.3
59163.8,47247.5
59132.7,47268.3
59096,47275.6
58904,47275.6
58867.3,47268.3
58836.2,47247.5
58815.4,47216.3
58808.1,47179.6
58808.1,46820.4
58815.4,46783.7
58836.2,46752.5
58867.3,46731.7
58904,46724.4
59096,46724.4
Z" /> 
<path style="fill:#000000; fill-opacity:1.0; 
stroke:#000000; stroke-width:0; stroke-opacity:1; 
stroke-linecap:round; stroke-linejoin:round;fill-rule:evenodd;"
d="M 59870.9,46731.7
59902,46752.5
59922.8,46783.7
59930.1,46820.4
59930.1,47179.6
59922.8,47216.3
59902,47247.5
59870.9,47268.3
59834.2,47275.6
59642.2,47275.6
59605.5,47268.3
59574.4,47247.5
59553.6,47216.3
59546.3,47179.6
59546.3,46820.4
59553.6,46783.7
59574.4,46752.5
59605.5,46731.7
59642.2,46724.4
59834.2,46724.4
Z" /> 
</g>
<g >
</g>
<g style="fill:#000000; fill-opacity:1.0; 
stroke:#000000; stroke-width:0; stroke-opacity:1; 
stroke-linecap:round; stroke-linejoin:round;">
<path style="fill:#000000; fill-opacity:1.0; 
stroke:#000000; stroke-width:0; stroke-opacity:1; 
stroke-linecap:round; stroke-linejoin:round;fill-rule:evenodd;"
d="M 66236.2,47878
65763.8,47878
65763.8,47523.6
66236.2,47523.6
Z" /> 
<path style="fill:#000000; fill-opacity:1.0; 
stroke:#000000; stroke-width:0; stroke-opacity:1; 
stroke-linecap:round; stroke-linejoin:round;fill-rule:evenodd;"
d="M 66236.2,49177.2
65763.8,49177.2
65763.8,48822.8
66236.2,48822.8
Z" /> 
</g>
<g >
</g>
<g style="fill:#000000; fill-opacity:1.0; 
stroke:#000000; stroke-width:0; stroke-opacity:1; 
stroke-linecap:round; stroke-linejoin:round;">
<path style="fill:#000000; fill-opacity:1.0; 
stroke:#000000; stroke-width:0; stroke-opacity:1; 
stroke-linecap:round; stroke-linejoin:round;fill-rule:evenodd;"
d="M 59870.9,40731.7
59902,40752.5
59922.8,40783.7
59930.1,40820.4
59930.1,41179.6
59922.8,41216.3
59902,41247.5
59870.9,41268.3
59834.2,41275.6
59642.2,41275.6
59605.5,41268.3
59574.4,41247.5
59553.6,41216.3
59546.3,41179.6
59546.3,40820.4
59553.6,40783.7
59574.4,40752.5
59605.5,40731.7
59642.2,40724.4
59834.2,40724.4
Z" /> 
<path style="fill:#000000; fill-opacity:1.0; 
stroke:#000000; stroke-width:0; stroke-opacity:1; 
stroke-linecap:round; stroke-linejoin:round;fill-rule:evenodd;"
d="M 59132.7,40731.7
59163.8,40752.5
59184.6,40783.7
59191.9,40820.4
59191.9,41179.6
59184.6,41216.3
59163.8,41247.5
59132.7,41268.3
59096,41275.6
58904,41275.6
58867.3,41268.3
58836.2,41247.5
58815.4,41216.3
58808.1,41179.6
58808.1,40820.4
58815.4,40783.7
58836.2,40752.5
58867.3,40731.7
58904,40724.4
59096,40724.4
Z" /> 
</g>
<g >
</g>
<g style="fill:#000000; fill-opacity:1.0; 
stroke:#000000; stroke-width:0; stroke-opacity:1; 
stroke-linecap:round; stroke-linejoin:round;">
<path style="fill:#000000; fill-opacity:1.0; 
stroke:#000000; stroke-width:0; stroke-opacity:1; 
stroke-linecap:round; stroke-linejoin:round;fill-rule:evenodd;"
d="M 63716.3,48077.2
63747.5,48098
63768.3,48129.1
63775.6,48165.8
63775.6,48357.8
63768.3,48394.5
63747.5,48425.6
63716.3,48446.4
63679.6,48453.7
63320.4,48453.7
63283.7,48446.4
63252.5,48425.6
63231.7,48394.5
63224.4,48357.8
63224.4,48165.8
63231.7,48129.1
63252.5,48098
63283.7,48077.2
63320.4,48069.9
63679.6,48069.9
Z" /> 
<path style="fill:#000000; fill-opacity:1.0; 
stroke:#000000; stroke-width:0; stroke-opacity:1; 
stroke-linecap:round; stroke-linejoin:round;fill-rule:evenodd;"
d="M 63716.3,48815.4
63747.5,48836.2
63768.3,48867.3
63775.6,48904
63775.6,49096
63768.3,49132.7
63747.5,49163.8
63716.3,49184.6
63679.6,49191.9
63320.4,49191.9
63283.7,49184.6
63252.5,49163.8
63231.7,49132.7
63224.4,49096
63224.4,48904
63231.7,48867.3
63252.5,48836.2
63283.7,48815.4
63320.4,48808.1
63679.6,48808.1
Z" /> 
</g>
<g >
</g>
<g style="fill:#000000; fill-opacity:1.0; 
stroke:#000000; stroke-width:0; stroke-opacity:1; 
stroke-linecap:round; stroke-linejoin:round;">
<circle cx="56300" cy="36800" r="629.921" /> 
</g>
<g style="fill:#000000; fill-opacity:1.0; 
stroke:#000000; stroke-width:39.3701; stroke-opacity:1; 
stroke-linecap:round; stroke-linejoin:round;">
</g>
<g >
</g>
<g style="fill:#000000; fill-opacity:1.0; 
stroke:#000000; stroke-width:39.3701; stroke-opacity:1; 
stroke-linecap:round; stroke-linejoin:round;">
</g>
<g style="fill:#000000; fill-opacity:1.0; 
stroke:#000000; stroke-width:0; stroke-opacity:1; 
stroke-linecap:round; stroke-linejoin:round;">
<circle cx="67300" cy="36800" r="629.921" /> 
</g>
<g style="fill:#000000; fill-opacity:1.0; 
stroke:#000000; stroke-width:39.3701; stroke-opacity:1; 
stroke-linecap:round; stroke-linejoin:round;">
</g>
<g >
</g>
<g style="fill:#000000; fill-opacity:1.0; 
stroke:#000000; stroke-width:39.3701; stroke-opacity:1; 
stroke-linecap:round; stroke-linejoin:round;">
</g>
<g style="fill:#000000; fill-opacity:1.0; 
stroke:#000000; stroke-width:0; stroke-opacity:1; 
stroke-linecap:round; stroke-linejoin:round;">
<circle cx="67300" cy="51500" r="629.921" /> 
</g>
<g style="fill:#000000; fill-opacity:1.0; 
stroke:#000000; stroke-width:39.3701; stroke-opacity:1; 
stroke-linecap:round; stroke-linejoin:round;">
</g>
<g >
</g>
<g style="fill:#000000; fill-opacity:1.0; 
stroke:#000000; stroke-width:39.3701; stroke-opacity:1; 
stroke-linecap:round; stroke-linejoin:round;">
</g>
<g style="fill:#000000; fill-opacity:1.0; 
stroke:#000000; stroke-width:0; stroke-opacity:1; 
stroke-linecap:round; stroke-linejoin:round;">
<circle cx="56300" cy="51500" r="629.921" /> 
</g>
<g style="fill:#000000; fill-opacity:1.0; 
stroke:#000000; stroke-width:39.3701; stroke-opacity:1; 
stroke-linecap:round; stroke-linejoin:round;">
</g>
<g >
</g>
<g >
</g>
<g style="fill:#000000; fill-opacity:1.0; 
stroke:#000000; stroke-width:39.3701; stroke-opacity:1; 
stroke-linecap:round; stroke-linejoin:round;">
</g>
<g style="fill:#000000; fill-opacity:1.0; 
stroke:#000000; stroke-width:157.48; stroke-opacity:1; 
stroke-linecap:round; stroke-linejoin:round;">
</g>
<g style="fill:#000000; fill-opacity:0.0; 
stroke:#000000; stroke-width:157.48; stroke-opacity:1; 
stroke-linecap:round; stroke-linejoin:round;">
<path d="M61589 43889
L63600 43889
" />
<path d="M61000 42500
L61000 43300
" />
<path d="M61000 43300
L61589 43889
" />
<path d="M59738 47000
L59738 46361
" />
<path d="M60000 46100
L60000 45500
" />
<path d="M59738 46361
L60000 46100
" />
<path d="M62000 42500
L62000 41000
" />
<path d="M60000 44300
L61000 43300
" />
<path d="M60000 45500
L60000 44300
" />
<path d="M60000 49640
L60000 51550
" />
<path d="M60000 49050
L60000 49640
" />
<path d="M57000 39500
L57000 41487
" />
<path d="M57000 41487
L56500 41487
" />
<path d="M56500 43436
L57000 43436
" />
<path d="M56500 43436
L56500 45000
" />
<path d="M56500 45000
L56500 46900
" />
<path d="M56500 47234
L56500 48600
" />
<path d="M56500 46900
L56500 47234
" />
<path d="M59000 45500
L59000 47000
" />
<path d="M58650 39650
L58650 40250
" />
<path d="M58100 40800
L58100 42400
" />
<path d="M56500 41487
L56500 42400
" />
<path d="M58100 42400
L56500 42400
" />
<path d="M56500 42400
L56500 43436
" />
<path d="M60000 39000
L59300 39000
" />
<path d="M59300 39000
L58650 39650
" />
<path d="M58650 40250
L58100 40800
" />
<path d="M58300 49050
L59000 49050
" />
<path d="M58000 49350
L58300 49050
" />
<path d="M56750 49350
L58000 49350
" />
<path d="M56500 48600
L56500 49100
" />
<path d="M56500 49100
L56750 49350
" />
<path d="M60000 42500
L60000 43250
" />
<path d="M59000 44250
L59000 45500
" />
<path d="M60000 43250
L59000 44250
" />
<path d="M63500 49000
L65000 49000
" />
<path d="M65000 49000
L66000 49000
" />
<path d="M62000 49050
L62000 49800
" />
<path d="M62700 50500
L63751 50500
" />
<path d="M62000 49800
L62700 50500
" />
<path d="M61261 41538
L61261 41000
" />
<path d="M61150 41650
L61261 41538
" />
<path d="M60850 41650
L61150 41650
" />
<path d="M60000 42500
L60850 41650
" />
<path d="M62800 39850
L63000 39650
" />
<path d="M60300 39850
L62800 39850
" />
<path d="M59738 41000
L59738 40411
" />
<path d="M63000 39650
L63000 39000
" />
<path d="M59738 40411
L60300 39850
" />
<path d="M59000 47000
L59000 48150
" />
<path d="M59000 48150
L59000 49050
" />
<path d="M62861 48261
L63500 48261
" />
<path d="M61000 45500
L61000 46400
" />
<path d="M61000 46400
L62861 48261
" />
<path d="M64125 51975
L64200 52050
" />
<path d="M66000 49460
L66000 49000
" />
<path d="M64200 52050
L64850 52050
" />
<path d="M64850 52050
L65040 51860
" />
<path d="M64125 51366
L64125 51975
" />
<path d="M65040 51860
L65040 50420
" />
<path d="M65040 50420
L66000 49460
" />
</g>
<g style="fill:#000000; fill-opacity:0.0; 
stroke:#000000; stroke-width:295.276; stroke-opacity:1; 
stroke-linecap:round; stroke-linejoin:round;">
<path d="M62000 38150
L62000 39000
" />
<path d="M67900 40650
L65000 37750
" />
<path d="M67900 48550
L67900 40650
" />
<path d="M65500 51900
L65500 50950
" />
<path d="M65500 50950
L67900 48550
" />
<path d="M63725 52500
L64900 52500
" />
<path d="M62400 37750
L62000 38150
" />
<path d="M64900 52500
L65500 51900
" />
<path d="M61000 50040
L61980 51020
" />
<path d="M61000 49050
L61000 50040
" />
<path d="M61980 51020
L62580 51020
" />
<path d="M65000 37750
L62400 37750
" />
<path d="M62580 51020
L63100 51540
" />
<path d="M63100 51540
L63100 51875
" />
<path d="M63100 51875
L63725 52500
" />
</g>
<g style="fill:#000000; fill-opacity:0.0; 
stroke:#000000; stroke-width:157.48; stroke-opacity:1; 
stroke-linecap:round; stroke-linejoin:round;">
<path d="M57238 45000
L57238 45738
" />
<path d="M57500 46000
L57500 46750
" />
<path d="M57238 45738
L57500 46000
" />
<path d="M57238 48011
L57238 48600
" />
<path d="M57500 46750
L57500 47750
" />
<path d="M57500 47750
L57238 48011
" />
<path d="M57238 44386
L57238 45000
" />
<path d="M57500 43436
L57500 44125
" />
<path d="M57500 44125
L57238 44386
" />
<path d="M58063 43436
L59000 42500
" />
<path d="M57500 43436
L58063 43436
" />
<path d="M59000 50700
L59000 51550
" />
<path d="M58000 49700
L59000 50700
" />
<path d="M56450 49700
L58000 49700
" />
<path d="M55400 48650
L56450 49700
" />
<path d="M61000 38000
L60750 37750
" />
<path d="M61000 39000
L61000 38000
" />
<path d="M60750 37750
L59212 37750
" />
<path d="M55400 39650
L55400 48650
" />
<path d="M59212 37750
L58275 38687
" />
<path d="M56362 38687
L55400 39650
" />
<path d="M57984 39500
L57984 38690
" />
<path d="M58275 38687
L57987 38687
" />
<path d="M57984 38690
L57987 38687
" />
<path d="M57987 38687
L56362 38687
" />
<path d="M57500 40550
L57500 41487
" />
<path d="M57984 39500
L57984 40065
" />
<path d="M57984 40065
L57500 40550
" />
<path d="M59000 41000
L59000 41600
" />
<path d="M59000 41600
L59000 42500
" />
<path d="M64300 48400
L64300 47800
" />
<path d="M64300 47800
L62000 45500
" />
<path d="M64300 48625
L64300 48400
" />
<path d="M64500 49900
L64100 49500
" />
<path d="M63200 49500
L62900 49200
" />
<path d="M64500 50500
L64500 49900
" />
<path d="M64100 49500
L63200 49500
" />
<path d="M62900 49200
L62900 48625
" />
<path d="M62900 48625
L64300 48625
" />
<path d="M65000 47100
L65000 47700
" />
<path d="M63600 44874
L63600 45700
" />
<path d="M63600 45700
L65000 47100
" />
<path d="M64500 46100
L65625 47225
" />
<path d="M64500 43100
L64500 46100
" />
<path d="M63600 42905
L64305 42905
" />
<path d="M64305 42905
L64500 43100
" />
<path d="M66800 47600
L66800 48400
" />
<path d="M66175 46975
L66800 47600
" />
<path d="M66800 48400
L64300 48400
" />
<path d="M65000 46100
L65875 46975
" />
<path d="M65000 41300
L65000 46100
" />
<path d="M59000 41600
L60200 41600
" />
<path d="M60200 41600
L60400 41400
" />
<path d="M60400 41400
L60400 40600
" />
<path d="M65875 46975
L66175 46975
" />
<path d="M64000 40300
L65000 41300
" />
<path d="M60400 40600
L60700 40300
" />
<path d="M60700 40300
L64000 40300
" />
<path d="M62600 48550
L62200 48150
" />
<path d="M62600 49350
L62600 48550
" />
<path d="M63050 49800
L62600 49350
" />
<path d="M63850 49800
L63050 49800
" />
<path d="M63751 51366
L63751 51018
" />
<path d="M62200 48150
L59000 48150
" />
<path d="M64125 50845
L64125 50075
" />
<path d="M63751 51018
L63845 50925
" />
<path d="M63845 50925
L64045 50925
" />
<path d="M64125 50075
L63850 49800
" />
<path d="M64045 50925
L64125 50845
" />
<path d="M65825 47225
L66000 47400
" />
<path d="M66000 47400
L66000 47700
" />
<path d="M65625 47225
L65825 47225
" />
</g>
<g >
</g>
</g>
<g style="fill:#FFFFFF; fill-opacity:0.0; 
stroke:#FFFFFF; stroke-width:157.48; stroke-opacity:1; 
stroke-linecap:round; stroke-linejoin:round;">
</g>
<g style="fill:#FFFFFF; fill-opacity:1.0; 
stroke:#FFFFFF; stroke-width:0; stroke-opacity:1; 
stroke-linecap:round; stroke-linejoin:round;">
<circle cx="57000" cy="39500" r="78.7402" /> 
</g>
<g style="fill:#FFFFFF; fill-opacity:1.0; 
stroke:#FFFFFF; stroke-width:39.3701; stroke-opacity:1; 
stroke-linecap:round; stroke-linejoin:round;">
</g>
<g style="fill:#FFFFFF; fill-opacity:1.0; 
stroke:#FFFFFF; stroke-width:0; stroke-opacity:1; 
stroke-linecap:round; stroke-linejoin:round;">
<circle cx="57984.3" cy="39500" r="78.7402" /> 
</g>
<g style="fill:#FFFFFF; fill-opacity:1.0; 
stroke:#FFFFFF; stroke-width:39.3701; stroke-opacity:1; 
stroke-linecap:round; stroke-linejoin:round;">
</g>
<g style="fill:#FFFFFF; fill-opacity:1.0; 
stroke:#FFFFFF; stroke-width:0; stroke-opacity:1; 
stroke-linecap:round; stroke-linejoin:round;">
<circle cx="56515.7" cy="46750" r="78.7402" /> 
</g>
<g style="fill:#FFFFFF; fill-opacity:1.0; 
stroke:#FFFFFF; stroke-width:39.3701; stroke-opacity:1; 
stroke-linecap:round; stroke-linejoin:round;">
</g>
<g style="fill:#FFFFFF; fill-opacity:1.0; 
stroke:#FFFFFF; stroke-width:0; stroke-opacity:1; 
stroke-linecap:round; stroke-linejoin:round;">
<circle cx="57500" cy="46750" r="78.7402" /> 
</g>
<g style="fill:#FFFFFF; fill-opacity:1.0; 
stroke:#FFFFFF; stroke-width:39.3701; stroke-opacity:1; 
stroke-linecap:round; stroke-linejoin:round;">
</g>
<g style="fill:#FFFFFF; fill-opacity:1.0; 
stroke:#FFFFFF; stroke-width:0; stroke-opacity:1; 
stroke-linecap:round; stroke-linejoin:round;">
<circle cx="60000" cy="51550" r="78.7402" /> 
</g>
<g style="fill:#FFFFFF; fill-opacity:1.0; 
stroke:#FFFFFF; stroke-width:39.3701; stroke-opacity:1; 
stroke-linecap:round; stroke-linejoin:round;">
</g>
<g style="fill:#FFFFFF; fill-opacity:1.0; 
stroke:#FFFFFF; stroke-width:0; stroke-opacity:1; 
stroke-linecap:round; stroke-linejoin:round;">
<circle cx="59000" cy="51550" r="78.7402" /> 
</g>
<g style="fill:#FFFFFF; fill-opacity:1.0; 
stroke:#FFFFFF; stroke-width:39.3701; stroke-opacity:1; 
stroke-linecap:round; stroke-linejoin:round;">
</g>
<g style="fill:#FFFFFF; fill-opacity:1.0; 
stroke:#FFFFFF; stroke-width:0; stroke-opacity:1; 
stroke-linecap:round; stroke-linejoin:round;">
<circle cx="62000" cy="49050" r="78.7402" /> 
</g>
<g style="fill:#FFFFFF; fill-opacity:1.0; 
stroke:#FFFFFF; stroke-width:39.3701; stroke-opacity:1; 
stroke-linecap:round; stroke-linejoin:round;">
</g>
<g style="fill:#FFFFFF; fill-opacity:1.0; 
stroke:#FFFFFF; stroke-width:0; stroke-opacity:1; 
stroke-linecap:round; stroke-linejoin:round;">
<circle cx="61000" cy="49050" r="78.7402" /> 
</g>
<g style="fill:#FFFFFF; fill-opacity:1.0; 
stroke:#FFFFFF; stroke-width:39.3701; stroke-opacity:1; 
stroke-linecap:round; stroke-linejoin:round;">
</g>
<g style="fill:#FFFFFF; fill-opacity:1.0; 
stroke:#FFFFFF; stroke-width:0; stroke-opacity:1; 
stroke-linecap:round; stroke-linejoin:round;">
<circle cx="60000" cy="49050" r="78.7402" /> 
</g>
<g style="fill:#FFFFFF; fill-opacity:1.0; 
stroke:#FFFFFF; stroke-width:39.3701; stroke-opacity:1; 
stroke-linecap:round; stroke-linejoin:round;">
</g>
<g style="fill:#FFFFFF; fill-opacity:1.0; 
stroke:#FFFFFF; stroke-width:0; stroke-opacity:1; 
stroke-linecap:round; stroke-linejoin:round;">
<circle cx="59000" cy="49050" r="78.7402" /> 
</g>
<g style="fill:#FFFFFF; fill-opacity:1.0; 
stroke:#FFFFFF; stroke-width:39.3701; stroke-opacity:1; 
stroke-linecap:round; stroke-linejoin:round;">
</g>
<g style="fill:#FFFFFF; fill-opacity:1.0; 
stroke:#FFFFFF; stroke-width:0; stroke-opacity:1; 
stroke-linecap:round; stroke-linejoin:round;">
<circle cx="63000" cy="39000" r="78.7402" /> 
</g>
<g style="fill:#FFFFFF; fill-opacity:1.0; 
stroke:#FFFFFF; stroke-width:39.3701; stroke-opacity:1; 
stroke-linecap:round; stroke-linejoin:round;">
</g>
<g style="fill:#FFFFFF; fill-opacity:1.0; 
stroke:#FFFFFF; stroke-width:0; stroke-opacity:1; 
stroke-linecap:round; stroke-linejoin:round;">
<circle cx="62000" cy="39000" r="78.7402" /> 
</g>
<g style="fill:#FFFFFF; fill-opacity:1.0; 
stroke:#FFFFFF; stroke-width:39.3701; stroke-opacity:1; 
stroke-linecap:round; stroke-linejoin:round;">
</g>
<g style="fill:#FFFFFF; fill-opacity:1.0; 
stroke:#FFFFFF; stroke-width:0; stroke-opacity:1; 
stroke-linecap:round; stroke-linejoin:round;">
<circle cx="61000" cy="39000" r="78.7402" /> 
</g>
<g style="fill:#FFFFFF; fill-opacity:1.0; 
stroke:#FFFFFF; stroke-width:39.3701; stroke-opacity:1; 
stroke-linecap:round; stroke-linejoin:round;">
</g>
<g style="fill:#FFFFFF; fill-opacity:1.0; 
stroke:#FFFFFF; stroke-width:0; stroke-opacity:1; 
stroke-linecap:round; stroke-linejoin:round;">
<circle cx="60000" cy="39000" r="78.7402" /> 
</g>
<g style="fill:#FFFFFF; fill-opacity:1.0; 
stroke:#FFFFFF; stroke-width:39.3701; stroke-opacity:1; 
stroke-linecap:round; stroke-linejoin:round;">
</g>
<g style="fill:#FFFFFF; fill-opacity:1.0; 
stroke:#FFFFFF; stroke-width:0; stroke-opacity:1; 
stroke-linecap:round; stroke-linejoin:round;">
<circle cx="66552.8" cy="42000" r="196.85" /> 
</g>
<g style="fill:#FFFFFF; fill-opacity:1.0; 
stroke:#FFFFFF; stroke-width:39.3701; stroke-opacity:1; 
stroke-linecap:round; stroke-linejoin:round;">
</g>
<g style="fill:#FFFFFF; fill-opacity:1.0; 
stroke:#FFFFFF; stroke-width:0; stroke-opacity:1; 
stroke-linecap:round; stroke-linejoin:round;">
<circle cx="66552.8" cy="45779.5" r="196.85" /> 
</g>
<g style="fill:#FFFFFF; fill-opacity:1.0; 
stroke:#FFFFFF; stroke-width:39.3701; stroke-opacity:1; 
stroke-linecap:round; stroke-linejoin:round;">
</g>
<g style="fill:#FFFFFF; fill-opacity:1.0; 
stroke:#FFFFFF; stroke-width:0; stroke-opacity:1; 
stroke-linecap:round; stroke-linejoin:round;">
<circle cx="63600" cy="44874" r="78.7402" /> 
</g>
<g style="fill:#FFFFFF; fill-opacity:1.0; 
stroke:#FFFFFF; stroke-width:39.3701; stroke-opacity:1; 
stroke-linecap:round; stroke-linejoin:round;">
</g>
<g style="fill:#FFFFFF; fill-opacity:1.0; 
stroke:#FFFFFF; stroke-width:0; stroke-opacity:1; 
stroke-linecap:round; stroke-linejoin:round;">
<circle cx="63600" cy="43889.8" r="78.7402" /> 
</g>
<g style="fill:#FFFFFF; fill-opacity:1.0; 
stroke:#FFFFFF; stroke-width:39.3701; stroke-opacity:1; 
stroke-linecap:round; stroke-linejoin:round;">
</g>
<g style="fill:#FFFFFF; fill-opacity:1.0; 
stroke:#FFFFFF; stroke-width:0; stroke-opacity:1; 
stroke-linecap:round; stroke-linejoin:round;">
<circle cx="63600" cy="42905.5" r="78.7402" /> 
</g>
<g style="fill:#FFFFFF; fill-opacity:1.0; 
stroke:#FFFFFF; stroke-width:39.3701; stroke-opacity:1; 
stroke-linecap:round; stroke-linejoin:round;">
</g>
<g style="fill:#FFFFFF; fill-opacity:1.0; 
stroke:#FFFFFF; stroke-width:0; stroke-opacity:1; 
stroke-linecap:round; stroke-linejoin:round;">
<circle cx="59000" cy="42500" r="78.7402" /> 
</g>
<g style="fill:#FFFFFF; fill-opacity:1.0; 
stroke:#FFFFFF; stroke-width:39.3701; stroke-opacity:1; 
stroke-linecap:round; stroke-linejoin:round;">
</g>
<g style="fill:#FFFFFF; fill-opacity:1.0; 
stroke:#FFFFFF; stroke-width:0; stroke-opacity:1; 
stroke-linecap:round; stroke-linejoin:round;">
<circle cx="62000" cy="45500" r="78.7402" /> 
</g>
<g style="fill:#FFFFFF; fill-opacity:1.0; 
stroke:#FFFFFF; stroke-width:39.3701; stroke-opacity:1; 
stroke-linecap:round; stroke-linejoin:round;">
</g>
<g style="fill:#FFFFFF; fill-opacity:1.0; 
stroke:#FFFFFF; stroke-width:0; stroke-opacity:1; 
stroke-linecap:round; stroke-linejoin:round;">
<circle cx="60000" cy="42500" r="78.7402" /> 
</g>
<g style="fill:#FFFFFF; fill-opacity:1.0; 
stroke:#FFFFFF; stroke-width:39.3701; stroke-opacity:1; 
stroke-linecap:round; stroke-linejoin:round;">
</g>
<g style="fill:#FFFFFF; fill-opacity:1.0; 
stroke:#FFFFFF; stroke-width:0; stroke-opacity:1; 
stroke-linecap:round; stroke-linejoin:round;">
<circle cx="61000" cy="45500" r="78.7402" /> 
</g>
<g style="fill:#FFFFFF; fill-opacity:1.0; 
stroke:#FFFFFF; stroke-width:39.3701; stroke-opacity:1; 
stroke-linecap:round; stroke-linejoin:round;">
</g>
<g style="fill:#FFFFFF; fill-opacity:1.0; 
stroke:#FFFFFF; stroke-width:0; stroke-opacity:1; 
stroke-linecap:round; stroke-linejoin:round;">
<circle cx="61000" cy="42500" r="78.7402" /> 
</g>
<g style="fill:#FFFFFF; fill-opacity:1.0; 
stroke:#FFFFFF; stroke-width:39.3701; stroke-opacity:1; 
stroke-linecap:round; stroke-linejoin:round;">
</g>
<g style="fill:#FFFFFF; fill-opacity:1.0; 
stroke:#FFFFFF; stroke-width:0; stroke-opacity:1; 
stroke-linecap:round; stroke-linejoin:round;">
<circle cx="60000" cy="45500" r="78.7402" /> 
</g>
<g style="fill:#FFFFFF; fill-opacity:1.0; 
stroke:#FFFFFF; stroke-width:39.3701; stroke-opacity:1; 
stroke-linecap:round; stroke-linejoin:round;">
</g>
<g style="fill:#FFFFFF; fill-opacity:1.0; 
stroke:#FFFFFF; stroke-width:0; stroke-opacity:1; 
stroke-linecap:round; stroke-linejoin:round;">
<circle cx="62000" cy="42500" r="78.7402" /> 
</g>
<g style="fill:#FFFFFF; fill-opacity:1.0; 
stroke:#FFFFFF; stroke-width:39.3701; stroke-opacity:1; 
stroke-linecap:round; stroke-linejoin:round;">
</g>
<g style="fill:#FFFFFF; fill-opacity:1.0; 
stroke:#FFFFFF; stroke-width:0; stroke-opacity:1; 
stroke-linecap:round; stroke-linejoin:round;">
<circle cx="59000" cy="45500" r="78.7402" /> 
</g>
<g style="fill:#FFFFFF; fill-opacity:1.0; 
stroke:#FFFFFF; stroke-width:39.3701; stroke-opacity:1; 
stroke-linecap:round; stroke-linejoin:round;">
</g>
<g style="fill:#FFFFFF; fill-opacity:1.0; 
stroke:#FFFFFF; stroke-width:0; stroke-opacity:1; 
stroke-linecap:round; stroke-linejoin:round;">
<circle cx="56300" cy="36800" r="629.921" /> 
</g>
<g style="fill:#FFFFFF; fill-opacity:1.0; 
stroke:#FFFFFF; stroke-width:39.3701; stroke-opacity:1; 
stroke-linecap:round; stroke-linejoin:round;">
</g>
<g style="fill:#FFFFFF; fill-opacity:1.0; 
stroke:#FFFFFF; stroke-width:0; stroke-opacity:1; 
stroke-linecap:round; stroke-linejoin:round;">
<circle cx="67300" cy="36800" r="629.921" /> 
</g>
<g style="fill:#FFFFFF; fill-opacity:1.0; 
stroke:#FFFFFF; stroke-width:39.3701; stroke-opacity:1; 
stroke-linecap:round; stroke-linejoin:round;">
</g>
<g style="fill:#FFFFFF; fill-opacity:1.0; 
stroke:#FFFFFF; stroke-width:0; stroke-opacity:1; 
stroke-linecap:round; stroke-linejoin:round;">
<circle cx="67300" cy="51500" r="629.921" /> 
</g>
<g style="fill:#FFFFFF; fill-opacity:1.0; 
stroke:#FFFFFF; stroke-width:39.3701; stroke-opacity:1; 
stroke-linecap:round; stroke-linejoin:round;">
</g>
<g style="fill:#FFFFFF; fill-opacity:1.0; 
stroke:#FFFFFF; stroke-width:0; stroke-opacity:1; 
stroke-linecap:round; stroke-linejoin:round;">
<circle cx="56300" cy="51500" r="629.921" /> 
</g>
<g style="fill:#FFFFFF; fill-opacity:1.0; 
stroke:#FFFFFF; stroke-width:39.3701; stroke-opacity:1; 
stroke-linecap:round; stroke-linejoin:round;">
</g>
<g style="fill:#000000; fill-opacity:1.0; 
stroke:#000000; stroke-width:39.3701; stroke-opacity:1; 
stroke-linecap:round; stroke-linejoin:round;">
</g> 
</svg>
